<?xml version="1.0" encoding="UTF-8"?>
<svg version="1.1" viewBox="0 0 1024 1024" width="256" height="256" xmlns="http://www.w3.org/2000/svg">
<path transform="translate(445,367)" d="m0 0h14l9 3 11 7 6 12v8l-5 9-10 10-15 9-16 7-10 5-8 2-20 10-6 5h-8l-17 8-9 4-17 9-5 4-14 5-11 6-16 8-12 9-9 4-16 9-4 4-4 1-6 1-14 9-6 5-11 5v2l5-1 7-2 5-1 12-2h10l10-4 12-2 9-4h10l4-2h5l2-4 11-1 9-2h9l15-4 11-4 2-2 7 1 6-3 17-1 2-2h11l9-3 3 2 7-1 10-3h19l24-4 5-1 16-2 4-2 7 1 8-3 5-2h8l3-1h14l10-1h12l11 1h10l15-2 11-5 23-1 5-1h14l3 2 8 1 9-2h13l10-1 4-1 6 2 16-1 9 1 5-3 13-2 1-1h7l3 1h9l2-1h9l20 4 4-2 12 1h6l6-2 1 1h23l2-2h15l16 1h7l8 1 8 2h3v-2l2-1h8l5 2 3-2 9 2 15 3 8 6 10 4 3 7-2 9-6 8-8 5-13 1-7-2-12-1-7 2h-22l-10 2-10-3h-7l-16 3h-24l-6 1h-27l-7-2h-10l-10 2-7-3-13 2-1-1-7 1-2 1-13 1-2 1-16 2-3 1-7-2-5 2-3-1v-2l-5 1-3 2h-17l-8 2-33 5-3 1-8-1-9 1-5-1-15 3-5 2-23 2-5 1h-18l-1 1h-6l-5-1-2 1-16 2-12 6-32 3-6 2-10 1-12 2v-2l-8 4-22 5h-8l-13 4-4 1-7-1-13 4-5 3h-6l-4-1-1 1-12 2-5 1 1 2 10 3 16 6 10 1 22 5 19 10 11 3 12 6 2 9v8l1 6-2 8-6 2-2 4-5 3-12-1-18-5-5-1v2l-7-1-7-3-13-4h-9l-12-4-4-2-7-1-3-3-17-3-8 1-5-2-8-1v2l-8-1-5-2h-6l-7-5h-12l-7 2-6-1-7-1-5-1h-16l-11-2-3 2h-7l-4-1-5 2h-12l-4 3h-10l-7 6-11 4h-7l-6-1h-9l-3-1h-7l-11 4-20 1-13-4-6-7-4-8-4-18 5-6 8-7 16-15 6-9 14-9 11-6 13-8 10-8 9-9 9-5 9-6 10-5 10-6 30-15 10-8 28-16 8-6 8-5 10-3 12-5 4-4 26-12 9-4 10-6 2-2 8-2 18-10 32-16 10-4 10-2 2-4 6-3 14-5z" fill="#282828"/>
</svg>
